<?xml version="1.0" encoding="UTF-8" standalone="no"?>
<svg
   xmlns:dc="http://purl.org/dc/elements/1.1/"
   xmlns:cc="http://creativecommons.org/ns#"
   xmlns:rdf="http://www.w3.org/1999/02/22-rdf-syntax-ns#"
   xmlns:svg="http://www.w3.org/2000/svg"
   xmlns="http://www.w3.org/2000/svg"
   xmlns:sodipodi="http://sodipodi.sourceforge.net/DTD/sodipodi-0.dtd"
   xmlns:inkscape="http://www.inkscape.org/namespaces/inkscape"
   version="1.1"
   x="0px"
   y="0px"
   viewBox="0 0 100 125"
   enable-background="new 0 0 100 100"
   xml:space="preserve"
   id="svg2"
   inkscape:version="0.48.4 r9939"
   width="100%"
   height="100%"
   sodipodi:docname="noun_Marker_782854.svg"><metadata
     id="metadata16"><rdf:RDF><cc:Work
         rdf:about=""><dc:format>image/svg+xml</dc:format><dc:type
           rdf:resource="http://purl.org/dc/dcmitype/StillImage" /></cc:Work></rdf:RDF></metadata><defs
     id="defs14" /><sodipodi:namedview
     pagecolor="#ffffff"
     bordercolor="#666666"
     borderopacity="1"
     objecttolerance="10"
     gridtolerance="10"
     guidetolerance="10"
     inkscape:pageopacity="0"
     inkscape:pageshadow="2"
     inkscape:window-width="1280"
     inkscape:window-height="995"
     id="namedview12"
     showgrid="false"
     inkscape:zoom="3.776"
     inkscape:cx="4.3677158"
     inkscape:cy="70.631003"
     inkscape:window-x="-9"
     inkscape:window-y="-9"
     inkscape:window-maximized="1"
     inkscape:current-layer="svg2" /><path
     d="m 50.055302,0.54271186 c -24.182624,0 -43.8471664,19.67815014 -43.8471664,43.84716514 0,40.757994 41.1934734,78.072993 42.9353834,79.651593 0.258566,0.23135 0.585174,0.34022 0.911783,0.34022 0.340217,0 0.666825,-0.12247 0.938998,-0.36743 1.741911,-1.66026 42.908166,-40.921299 42.908166,-79.624383 0,-24.169015 -19.664541,-43.84716514 -43.847164,-43.84716514 z M 83.15161,44.811745 c 0,18.153979 -14.765417,32.919397 -32.919396,32.919397 -18.153978,0 -32.919395,-14.765418 -32.919395,-32.919397 0,-18.14037 14.765417,-32.919395 32.919395,-32.919395 18.153979,0 32.919396,14.779025 32.919396,32.919395 z"
     id="path4"
     inkscape:connector-curvature="0"
     style="fill:param(fill) #FFF;fill-opacity:1;stroke-width:param(outline-width) 1;stroke-miterlimit:4;stroke-dasharray:none;stroke:param(outline) #000;stroke-opacity:1" /></svg>